<svg xmlns="http://www.w3.org/2000/svg" viewBox="214 24 672 492" width="1344" height="983"><polygon points="873.5,391.4 679.1,503.6 679.1,483.2 873.5,371.0" fill="#201F26" stroke="#2E1A9E" stroke-width="2.4" stroke-linejoin="round"/><polygon points="225.7,241.8 679.1,503.6 679.1,483.2 225.7,221.4" fill="#2D2C36" stroke="#2E1A9E" stroke-width="2.4" stroke-linejoin="round"/><polygon points="420.0,109.2 873.5,371.0 679.1,483.2 225.7,221.4" fill="#3A3943" stroke="#2E1A9E" stroke-width="2.4" stroke-linejoin="round"/><circle cx="420.0" cy="129.6" r="1.1" fill="#605F6B"/><circle cx="390.6" cy="146.6" r="1.1" fill="#605F6B"/><circle cx="361.1" cy="163.6" r="1.1" fill="#605F6B"/><circle cx="331.7" cy="180.6" r="1.1" fill="#605F6B"/><circle cx="302.2" cy="197.6" r="1.1" fill="#605F6B"/><circle cx="272.8" cy="214.6" r="1.1" fill="#605F6B"/><circle cx="449.4" cy="146.6" r="1.1" fill="#605F6B"/><circle cx="420.0" cy="163.6" r="1.1" fill="#605F6B"/><circle cx="390.6" cy="180.6" r="1.1" fill="#605F6B"/><circle cx="361.1" cy="197.6" r="1.1" fill="#605F6B"/><circle cx="331.7" cy="214.6" r="1.1" fill="#605F6B"/><circle cx="302.2" cy="231.6" r="1.1" fill="#605F6B"/><circle cx="478.9" cy="163.6" r="1.1" fill="#605F6B"/><circle cx="449.4" cy="180.6" r="1.1" fill="#605F6B"/><circle cx="420.0" cy="197.6" r="1.1" fill="#605F6B"/><circle cx="390.6" cy="214.6" r="1.1" fill="#605F6B"/><circle cx="361.1" cy="231.6" r="1.1" fill="#605F6B"/><circle cx="331.7" cy="248.6" r="1.1" fill="#605F6B"/><circle cx="508.3" cy="180.6" r="1.1" fill="#605F6B"/><circle cx="478.9" cy="197.6" r="1.1" fill="#605F6B"/><circle cx="449.4" cy="214.6" r="1.1" fill="#605F6B"/><circle cx="420.0" cy="231.6" r="1.1" fill="#605F6B"/><circle cx="390.6" cy="248.6" r="1.1" fill="#605F6B"/><circle cx="361.1" cy="265.6" r="1.1" fill="#605F6B"/><circle cx="537.8" cy="197.6" r="1.1" fill="#605F6B"/><circle cx="508.3" cy="214.6" r="1.1" fill="#605F6B"/><circle cx="478.9" cy="231.6" r="1.1" fill="#605F6B"/><circle cx="449.4" cy="248.6" r="1.1" fill="#605F6B"/><circle cx="420.0" cy="265.6" r="1.1" fill="#605F6B"/><circle cx="390.6" cy="282.6" r="1.1" fill="#605F6B"/><circle cx="567.2" cy="214.6" r="1.1" fill="#605F6B"/><circle cx="537.8" cy="231.6" r="1.1" fill="#605F6B"/><circle cx="508.3" cy="248.6" r="1.1" fill="#605F6B"/><circle cx="478.9" cy="265.6" r="1.1" fill="#605F6B"/><circle cx="449.4" cy="282.6" r="1.1" fill="#605F6B"/><circle cx="420.0" cy="299.6" r="1.1" fill="#605F6B"/><circle cx="596.7" cy="231.6" r="1.1" fill="#605F6B"/><circle cx="567.2" cy="248.6" r="1.1" fill="#605F6B"/><circle cx="537.8" cy="265.6" r="1.1" fill="#605F6B"/><circle cx="508.3" cy="282.6" r="1.1" fill="#605F6B"/><circle cx="478.9" cy="299.6" r="1.1" fill="#605F6B"/><circle cx="449.4" cy="316.6" r="1.1" fill="#605F6B"/><circle cx="626.1" cy="248.6" r="1.1" fill="#605F6B"/><circle cx="596.7" cy="265.6" r="1.1" fill="#605F6B"/><circle cx="567.2" cy="282.6" r="1.1" fill="#605F6B"/><circle cx="537.8" cy="299.6" r="1.1" fill="#605F6B"/><circle cx="508.3" cy="316.6" r="1.1" fill="#605F6B"/><circle cx="478.9" cy="333.6" r="1.1" fill="#605F6B"/><circle cx="655.6" cy="265.6" r="1.1" fill="#605F6B"/><circle cx="626.1" cy="282.6" r="1.1" fill="#605F6B"/><circle cx="596.7" cy="299.6" r="1.1" fill="#605F6B"/><circle cx="567.2" cy="316.6" r="1.1" fill="#605F6B"/><circle cx="537.8" cy="333.6" r="1.1" fill="#605F6B"/><circle cx="508.3" cy="350.6" r="1.1" fill="#605F6B"/><circle cx="685.0" cy="282.6" r="1.1" fill="#605F6B"/><circle cx="655.6" cy="299.6" r="1.1" fill="#605F6B"/><circle cx="626.1" cy="316.6" r="1.1" fill="#605F6B"/><circle cx="596.7" cy="333.6" r="1.1" fill="#605F6B"/><circle cx="567.2" cy="350.6" r="1.1" fill="#605F6B"/><circle cx="537.8" cy="367.6" r="1.1" fill="#605F6B"/><circle cx="714.4" cy="299.6" r="1.1" fill="#605F6B"/><circle cx="685.0" cy="316.6" r="1.1" fill="#605F6B"/><circle cx="655.6" cy="333.6" r="1.1" fill="#605F6B"/><circle cx="626.1" cy="350.6" r="1.1" fill="#605F6B"/><circle cx="596.7" cy="367.6" r="1.1" fill="#605F6B"/><circle cx="567.2" cy="384.6" r="1.1" fill="#605F6B"/><circle cx="743.9" cy="316.6" r="1.1" fill="#605F6B"/><circle cx="714.4" cy="333.6" r="1.1" fill="#605F6B"/><circle cx="685.0" cy="350.6" r="1.1" fill="#605F6B"/><circle cx="655.6" cy="367.6" r="1.1" fill="#605F6B"/><circle cx="626.1" cy="384.6" r="1.1" fill="#605F6B"/><circle cx="596.7" cy="401.6" r="1.1" fill="#605F6B"/><circle cx="773.3" cy="333.6" r="1.1" fill="#605F6B"/><circle cx="743.9" cy="350.6" r="1.1" fill="#605F6B"/><circle cx="714.4" cy="367.6" r="1.1" fill="#605F6B"/><circle cx="685.0" cy="384.6" r="1.1" fill="#605F6B"/><circle cx="655.6" cy="401.6" r="1.1" fill="#605F6B"/><circle cx="626.1" cy="418.6" r="1.1" fill="#605F6B"/><circle cx="802.8" cy="350.6" r="1.1" fill="#605F6B"/><circle cx="773.3" cy="367.6" r="1.1" fill="#605F6B"/><circle cx="743.9" cy="384.6" r="1.1" fill="#605F6B"/><circle cx="714.4" cy="401.6" r="1.1" fill="#605F6B"/><circle cx="685.0" cy="418.6" r="1.1" fill="#605F6B"/><circle cx="655.6" cy="435.6" r="1.1" fill="#605F6B"/><circle cx="832.2" cy="367.6" r="1.1" fill="#605F6B"/><circle cx="802.8" cy="384.6" r="1.1" fill="#605F6B"/><circle cx="773.3" cy="401.6" r="1.1" fill="#605F6B"/><circle cx="743.9" cy="418.6" r="1.1" fill="#605F6B"/><circle cx="714.4" cy="435.6" r="1.1" fill="#605F6B"/><circle cx="685.0" cy="452.6" r="1.1" fill="#605F6B"/><text transform="matrix(0.866025 0.5 -0.866025 0.5 268.4 230.8)" font-family="Menlo, monospace" font-weight="700" font-size="66" fill="#6B50FF" stroke="#2E1A9E" stroke-width="1.5" letter-spacing="4">hh</text><text transform="matrix(0.866025 0.5 -0.866025 0.5 371.4 290.2)" font-family="Menlo, monospace" font-size="18" fill="#9E9CAA" letter-spacing="1.5">claude code for hedera</text><polygon points="481.8,226.5 434.7,253.7 434.7,241.8 481.8,214.6" fill="#6B50FF" stroke="#2E1A9E" stroke-width="2.4" stroke-linejoin="round"/><polygon points="364.1,212.9 434.7,253.7 434.7,241.8 364.1,201.0" fill="#9A85FF" stroke="#2E1A9E" stroke-width="2.4" stroke-linejoin="round"/><polygon points="411.2,173.8 481.8,214.6 434.7,241.8 364.1,201.0" fill="#C9BCFF" stroke="#2E1A9E" stroke-width="2.4" stroke-linejoin="round"/><polygon points="437.7,209.5 425.9,216.3 425.9,185.7 437.7,178.9" fill="#6B50FF" stroke="#2E1A9E" stroke-width="2.4" stroke-linejoin="round"/><polygon points="408.2,206.1 425.9,216.3 425.9,185.7 408.2,175.5" fill="#9A85FF" stroke="#2E1A9E" stroke-width="2.4" stroke-linejoin="round"/><polygon points="420.0,168.7 437.7,178.9 425.9,185.7 408.2,175.5" fill="#C9BCFF" stroke="#2E1A9E" stroke-width="2.4" stroke-linejoin="round"/><polygon points="484.8,212.9 474.5,218.9 474.5,113.5 484.8,107.5" fill="#6B50FF" stroke="#2E1A9E" stroke-width="2.4" stroke-linejoin="round"/><polygon points="350.8,147.4 474.5,218.9 474.5,113.5 350.8,42.1" fill="#9A85FF" stroke="#2E1A9E" stroke-width="2.4" stroke-linejoin="round"/><polygon points="361.1,36.1 484.8,107.5 474.5,113.5 350.8,42.1" fill="#C9BCFF" stroke="#2E1A9E" stroke-width="2.4" stroke-linejoin="round"/><polygon points="358.2,143.2 467.1,206.1 467.1,117.7 358.2,54.8" fill="#201F26" stroke="#2E1A9E" stroke-width="1.6" stroke-linejoin="round"/><polyline points="367.0,71.8 374.4,81.2 367.0,82.0" fill="none" stroke="#00FFB2" stroke-width="2" stroke-linecap="round" stroke-linejoin="round"/><line x1="380.2" y1="84.5" x2="450.9" y2="125.3" stroke="#ECEBF0" stroke-width="2.2" stroke-linecap="round" /><line x1="367.0" y1="93.9" x2="427.4" y2="128.8" stroke="#FF60FF" stroke-width="2.2" stroke-linecap="round" /><line x1="367.0" y1="109.2" x2="442.1" y2="152.6" stroke="#858392" stroke-width="2.2" stroke-linecap="round" /><line x1="367.0" y1="124.5" x2="409.7" y2="149.1" stroke="#858392" stroke-width="2.2" stroke-linecap="round" /><line x1="367.0" y1="138.1" x2="433.3" y2="176.4" stroke="#00FFB2" stroke-width="2.2" stroke-linecap="round" /><polyline points="458.3,239.4 537.8,285.3 549.6,278.5 579.0,295.5" fill="none" stroke="#6B50FF" stroke-width="2.4" stroke-dasharray="6 5" stroke-linecap="round"/><polygon points="643.8,313.2 596.7,340.4 596.7,303.0 643.8,275.8" fill="#E04AE0" stroke="#2E1A9E" stroke-width="2.4" stroke-linejoin="round"/><polygon points="549.6,313.2 596.7,340.4 596.7,303.0 549.6,275.8" fill="#FF84FF" stroke="#2E1A9E" stroke-width="2.4" stroke-linejoin="round"/><polygon points="596.7,248.6 643.8,275.8 596.7,303.0 549.6,275.8" fill="#FFB3FF" stroke="#2E1A9E" stroke-width="2.4" stroke-linejoin="round"/><line x1="549.6" y1="294.5" x2="596.7" y2="321.7" stroke="#B535B5" stroke-width="1.4" stroke-linecap="round" /><line x1="643.8" y1="294.5" x2="596.7" y2="321.7" stroke="#9A2A9A" stroke-width="1.4" stroke-linecap="round" /><polygon points="708.6,350.6 661.4,377.8 661.4,320.0 708.6,292.8" fill="#E04AE0" stroke="#2E1A9E" stroke-width="2.4" stroke-linejoin="round"/><polygon points="614.3,350.6 661.4,377.8 661.4,320.0 614.3,292.8" fill="#FF84FF" stroke="#2E1A9E" stroke-width="2.4" stroke-linejoin="round"/><polygon points="661.4,265.6 708.6,292.8 661.4,320.0 614.3,292.8" fill="#FFB3FF" stroke="#2E1A9E" stroke-width="2.4" stroke-linejoin="round"/><line x1="614.3" y1="331.9" x2="661.4" y2="359.1" stroke="#B535B5" stroke-width="1.4" stroke-linecap="round" /><line x1="708.6" y1="331.9" x2="661.4" y2="359.1" stroke="#9A2A9A" stroke-width="1.4" stroke-linecap="round" /><line x1="614.3" y1="313.2" x2="661.4" y2="340.4" stroke="#B535B5" stroke-width="1.4" stroke-linecap="round" /><line x1="708.6" y1="313.2" x2="661.4" y2="340.4" stroke="#9A2A9A" stroke-width="1.4" stroke-linecap="round" /><polygon points="773.3,388.0 726.2,415.2 726.2,333.6 773.3,306.4" fill="#E04AE0" stroke="#2E1A9E" stroke-width="2.4" stroke-linejoin="round"/><polygon points="679.1,388.0 726.2,415.2 726.2,333.6 679.1,306.4" fill="#FF84FF" stroke="#2E1A9E" stroke-width="2.4" stroke-linejoin="round"/><polygon points="726.2,279.2 773.3,306.4 726.2,333.6 679.1,306.4" fill="#FFB3FF" stroke="#2E1A9E" stroke-width="2.4" stroke-linejoin="round"/><line x1="679.1" y1="369.3" x2="726.2" y2="396.5" stroke="#B535B5" stroke-width="1.4" stroke-linecap="round" /><line x1="773.3" y1="369.3" x2="726.2" y2="396.5" stroke="#9A2A9A" stroke-width="1.4" stroke-linecap="round" /><line x1="679.1" y1="350.6" x2="726.2" y2="377.8" stroke="#B535B5" stroke-width="1.4" stroke-linecap="round" /><line x1="773.3" y1="350.6" x2="726.2" y2="377.8" stroke="#9A2A9A" stroke-width="1.4" stroke-linecap="round" /><line x1="679.1" y1="331.9" x2="726.2" y2="359.1" stroke="#B535B5" stroke-width="1.4" stroke-linecap="round" /><line x1="773.3" y1="331.9" x2="726.2" y2="359.1" stroke="#9A2A9A" stroke-width="1.4" stroke-linecap="round" /><line x1="679.1" y1="313.2" x2="726.2" y2="340.4" stroke="#B535B5" stroke-width="1.4" stroke-linecap="round" /><line x1="773.3" y1="313.2" x2="726.2" y2="340.4" stroke="#9A2A9A" stroke-width="1.4" stroke-linecap="round" /><ellipse cx="726.2" cy="306.4" rx="22.9" ry="13.2" fill="#00FFB2" stroke="#12806A" stroke-width="2.2"/><polyline points="717.2,305.4 724.2,311.4 736.2,300.4" fill="none" stroke="#201F26" stroke-width="3.2" stroke-linecap="round" stroke-linejoin="round"/></svg>